<svg xmlns="http://www.w3.org/2000/svg" viewBox="0 0 24 24">
  <path fill="#107C10" d="M4.102 5.481C5.754 3.177 8.218 1.6 12 1.6s6.246 1.577 7.898 3.881c0 0-1.936-3.275-7.898-3.275S4.102 5.481 4.102 5.481zM12 6.7c-2.537 0-4.729 1.012-6.363 2.647-.784.783-1.566 1.824-2.046 2.762C3.093 13.32 3 14.48 3 14.48A8.947 8.947 0 0 0 12 23.4a8.947 8.947 0 0 0 9-8.92s-.093-1.16-.591-2.371c-.48-.938-1.262-1.98-2.046-2.762C16.73 7.712 14.537 6.7 12 6.7zM4.102 18.52C5.754 20.823 8.218 22.4 12 22.4s6.246-1.577 7.898-3.88c0 0-1.936 3.274-7.898 3.274s-7.898-3.274-7.898-3.274z"/>
</svg>
